<svg width="1200" height="630" viewBox="0 0 1200 630" fill="none" xmlns="http://www.w3.org/2000/svg">
  <rect width="1200" height="630" fill="#080808"/>
  <rect x="48" y="48" width="1104" height="534" fill="#0A0A0A" stroke="#1A1A1A" stroke-width="2"/>
  <path d="M48 118H1152" stroke="#1A1A1A" stroke-width="2"/>
  <circle cx="88" cy="83" r="8" fill="#EF4444"/>
  <circle cx="116" cy="83" r="8" fill="#F59E0B"/>
  <circle cx="144" cy="83" r="8" fill="#00FF88"/>
  <text x="184" y="91" fill="#3A3A4A" font-family="Space Mono, Consolas, monospace" font-size="18" letter-spacing="4">MOTION INTELLIGENCE PLATFORM</text>

  <g transform="translate(96 178)">
    <text x="0" y="72" fill="#E2E8F0" font-family="Space Mono, Consolas, monospace" font-size="64" font-weight="700">MotionCode</text>
    <text x="0" y="124" fill="#00FF88" font-family="Space Mono, Consolas, monospace" font-size="28">Turn animations into production code</text>
    <text x="0" y="182" fill="#6B7280" font-family="Inter, Arial, sans-serif" font-size="24">Upload motion clips. Export CSS, GSAP, Framer Motion, and React Spring.</text>
  </g>

  <g transform="translate(96 398)">
    <rect width="214" height="72" fill="#101010" stroke="#1A1A1A"/>
    <text x="24" y="45" fill="#E2E8F0" font-family="Space Mono, Consolas, monospace" font-size="20">CSS</text>
    <rect x="238" width="214" height="72" fill="#101010" stroke="#1A1A1A"/>
    <text x="262" y="45" fill="#E2E8F0" font-family="Space Mono, Consolas, monospace" font-size="20">GSAP</text>
    <rect x="476" width="274" height="72" fill="#101010" stroke="#1A1A1A"/>
    <text x="500" y="45" fill="#E2E8F0" font-family="Space Mono, Consolas, monospace" font-size="20">FRAMER MOTION</text>
    <rect x="774" width="214" height="72" fill="#101010" stroke="#1A1A1A"/>
    <text x="798" y="45" fill="#E2E8F0" font-family="Space Mono, Consolas, monospace" font-size="20">SPRING</text>
  </g>

  <g transform="translate(800 164)">
    <rect x="0" y="0" width="284" height="284" fill="#0F0F0F" stroke="#1A1A1A" stroke-width="2"/>
    <path d="M58 208C94 116 132 116 166 178C188 218 224 210 246 86" stroke="#00FF88" stroke-width="8" stroke-linecap="round"/>
    <circle cx="58" cy="208" r="12" fill="#00FF88"/>
    <circle cx="166" cy="178" r="12" fill="#00FF88"/>
    <circle cx="246" cy="86" r="12" fill="#00FF88"/>
    <path d="M62 64H210" stroke="#3A3A4A" stroke-width="2" stroke-dasharray="8 10"/>
    <path d="M62 238H210" stroke="#3A3A4A" stroke-width="2" stroke-dasharray="8 10"/>
  </g>

  <text x="96" y="542" fill="#3A3A4A" font-family="Space Mono, Consolas, monospace" font-size="18" letter-spacing="3">GPU SCORE / ACCESSIBILITY AUDIT / FRAME ANALYSIS</text>
</svg>
